<svg xmlns="http://www.w3.org/2000/svg" viewBox="0 0 100 100">
  <circle cx="50" cy="50" r="48" fill="#0c0c0c"/>
  <circle cx="30" cy="25" r="3" fill="#ffeaa7"/>
  <circle cx="75" cy="35" r="2" fill="#ffeaa7"/>
  <circle cx="20" cy="60" r="2" fill="#ffeaa7"/>
  <circle cx="80" cy="70" r="3" fill="#ffeaa7"/>
  <ellipse cx="50" cy="40" rx="28" ry="30" fill="#dfe6e9"/>
  <ellipse cx="50" cy="38" rx="22" ry="22" fill="#74b9ff"/>
  <circle cx="50" cy="38" r="18" fill="#0984e3"/>
  <circle cx="50" cy="40" r="12" fill="#FFCC80"/>
  <circle cx="46" cy="38" r="2" fill="#333"/>
  <circle cx="54" cy="38" r="2" fill="#333"/>
  <path d="M47 44 Q50 47 53 44" stroke="#333" stroke-width="1.5" fill="none"/>
  <ellipse cx="50" cy="75" rx="25" ry="22" fill="#dfe6e9"/>
  <rect x="30" y="70" width="10" height="15" fill="#dfe6e9"/>
  <rect x="60" y="70" width="10" height="15" fill="#dfe6e9"/>
  <circle cx="35" cy="78" r="3" fill="#e17055"/>
  <circle cx="50" cy="78" r="3" fill="#00b894"/>
  <circle cx="65" cy="78" r="3" fill="#0984e3"/>
</svg>
