<svg xmlns="http://www.w3.org/2000/svg" viewBox="0 0 100 100">
  <circle cx="50" cy="50" r="48" fill="#FF69B4"/>
  <ellipse cx="50" cy="55" rx="32" ry="35" fill="#4a1942"/>
  <circle cx="50" cy="45" r="25" fill="#FFCC80"/>
  <path d="M25 45 Q25 15 50 15 Q75 15 75 45 Q72 30 50 28 Q28 30 25 45" fill="#4a1942"/>
  <ellipse cx="23" cy="55" rx="8" ry="20" fill="#4a1942"/>
  <ellipse cx="77" cy="55" rx="8" ry="20" fill="#4a1942"/>
  <ellipse cx="40" cy="42" rx="4" ry="5" fill="#333"/>
  <ellipse cx="60" cy="42" rx="4" ry="5" fill="#333"/>
  <path d="M43 56 Q50 62 57 56" stroke="#E91E63" stroke-width="2" fill="none"/>
  <path d="M30 75 Q30 70 50 70 Q70 70 70 75 L75 98 L25 98 Z" fill="#E91E63"/>
  <circle cx="50" cy="73" r="4" fill="#FFD700"/>
  <circle cx="35" cy="20" r="8" fill="#FFD700"/>
</svg>
